# xmcd CD database file
#
# Track frame offsets:
#	150
#	15492
#	31817
#	45580
#	64575
#	79314
#	103308
#	116730
#	134194
#	144470
#	165850
#	190305
#
# Disc length: 2734 seconds
#
# Revision: 2
# Processed by: cddbd v1.5.2PL0 Copyright (c) Steve Scherf et al.
# Submitted via: jetAudio 7
#
DISCID=a20aac0c
DTITLE=Montana Rose - There´s A Dream...
DYEAR=1900
DGENRE=Country
TTITLE0=Somethin´ ´Bout You
TTITLE1=There´s A Dream
TTITLE2=Dirty Little Town
TTITLE3=Between Husbands And Wives
TTITLE4=I´m Not Ready
TTITLE5=Come On And Break My Heatr Again
TTITLE6=The Want To
TTITLE7=The Rain Came Down
TTITLE8=I Love You Honey (And I Don´t Mean Maybe)
TTITLE9=Don´t Touch Me
TTITLE10=Old California
TTITLE11=Waltz Across The Big Sky
EXTD=
EXTT0=
EXTT1=
EXTT2=
EXTT3=
EXTT4=
EXTT5=
EXTT6=
EXTT7=
EXTT8=
EXTT9=
EXTT10=
EXTT11=
PLAYORDER=
